<svg id="visual" viewBox="0 0 1200 630" width="1200" height="630" xmlns="http://www.w3.org/2000/svg" xmlns:xlink="http://www.w3.org/1999/xlink" version="1.1"><rect x="0" y="0" width="1200" height="630" fill="#140021"></rect><path d="M643 630L627 630L627 540L699 540L699 450L516 450L516 360L530 360L530 270L561 270L561 180L558 180L558 90L680 90L680 0L1200 0L1200 90L1200 90L1200 180L1200 180L1200 270L1200 270L1200 360L1200 360L1200 450L1200 450L1200 540L1200 540L1200 630L1200 630Z" fill="#9900ff"></path><path d="M899 630L759 630L759 540L704 540L704 450L796 450L796 360L858 360L858 270L821 270L821 180L798 180L798 90L748 90L748 0L1200 0L1200 90L1200 90L1200 180L1200 180L1200 270L1200 270L1200 360L1200 360L1200 450L1200 450L1200 540L1200 540L1200 630L1200 630Z" fill="#7700c6"></path><path d="M1055 630L955 630L955 540L1036 540L1036 450L1079 450L1079 360L1005 360L1005 270L923 270L923 180L996 180L996 90L906 90L906 0L1200 0L1200 90L1200 90L1200 180L1200 180L1200 270L1200 270L1200 360L1200 360L1200 450L1200 450L1200 540L1200 540L1200 630L1200 630Z" fill="#560090"></path></svg>