<svg id="visual" viewBox="0 0 1200 630" width="1200" height="630" xmlns="http://www.w3.org/2000/svg" xmlns:xlink="http://www.w3.org/1999/xlink" version="1.1"><rect x="0" y="0" width="1200" height="630" fill="#140021"></rect><path d="M868 0L793 0L793 37L1050 37L1050 74L1091 74L1091 111L1079 111L1079 148L912 148L912 185L968 185L968 222L833 222L833 259L907 259L907 296L963 296L963 334L965 334L965 371L824 371L824 408L1073 408L1073 445L1014 445L1014 482L986 482L986 519L899 519L899 556L795 556L795 593L1024 593L1024 630L0 630L0 593L0 593L0 556L0 556L0 519L0 519L0 482L0 482L0 445L0 445L0 408L0 408L0 371L0 371L0 334L0 334L0 296L0 296L0 259L0 259L0 222L0 222L0 185L0 185L0 148L0 148L0 111L0 111L0 74L0 74L0 37L0 37L0 0L0 0Z" fill="#560090"></path><path d="M860 0L923 0L923 37L993 37L993 74L697 74L697 111L918 111L918 148L862 148L862 185L680 185L680 222L842 222L842 259L724 259L724 296L924 296L924 334L746 334L746 371L823 371L823 408L951 408L951 445L827 445L827 482L992 482L992 519L906 519L906 556L914 556L914 593L663 593L663 630L0 630L0 593L0 593L0 556L0 556L0 519L0 519L0 482L0 482L0 445L0 445L0 408L0 408L0 371L0 371L0 334L0 334L0 296L0 296L0 259L0 259L0 222L0 222L0 185L0 185L0 148L0 148L0 111L0 111L0 74L0 74L0 37L0 37L0 0L0 0Z" fill="#5e009d"></path><path d="M605 0L830 0L830 37L805 37L805 74L652 74L652 111L658 111L658 148L664 148L664 185L624 185L624 222L839 222L839 259L870 259L870 296L619 296L619 334L732 334L732 371L891 371L891 408L592 408L592 445L778 445L778 482L583 482L583 519L615 519L615 556L615 556L615 593L650 593L650 630L0 630L0 593L0 593L0 556L0 556L0 519L0 519L0 482L0 482L0 445L0 445L0 408L0 408L0 371L0 371L0 334L0 334L0 296L0 296L0 259L0 259L0 222L0 222L0 185L0 185L0 148L0 148L0 111L0 111L0 74L0 74L0 37L0 37L0 0L0 0Z" fill="#6600ab"></path><path d="M589 0L588 0L588 37L608 37L608 74L569 74L569 111L556 111L556 148L721 148L721 185L751 185L751 222L718 222L718 259L529 259L529 296L775 296L775 334L720 334L720 371L712 371L712 408L638 408L638 445L490 445L490 482L670 482L670 519L640 519L640 556L515 556L515 593L493 593L493 630L0 630L0 593L0 593L0 556L0 556L0 519L0 519L0 482L0 482L0 445L0 445L0 408L0 408L0 371L0 371L0 334L0 334L0 296L0 296L0 259L0 259L0 222L0 222L0 185L0 185L0 148L0 148L0 111L0 111L0 74L0 74L0 37L0 37L0 0L0 0Z" fill="#6f00b8"></path><path d="M565 0L601 0L601 37L482 37L482 74L485 74L485 111L437 111L437 148L636 148L636 185L415 185L415 222L661 222L661 259L619 259L619 296L511 296L511 334L517 334L517 371L527 371L527 408L426 408L426 445L621 445L621 482L455 482L455 519L442 519L442 556L452 556L452 593L496 593L496 630L0 630L0 593L0 593L0 556L0 556L0 519L0 519L0 482L0 482L0 445L0 445L0 408L0 408L0 371L0 371L0 334L0 334L0 296L0 296L0 259L0 259L0 222L0 222L0 185L0 185L0 148L0 148L0 111L0 111L0 74L0 74L0 37L0 37L0 0L0 0Z" fill="#7700c6"></path><path d="M460 0L499 0L499 37L498 37L498 74L528 74L528 111L357 111L357 148L522 148L522 185L405 185L405 222L412 222L412 259L384 259L384 296L540 296L540 334L414 334L414 371L402 371L402 408L309 408L309 445L410 445L410 482L335 482L335 519L367 519L367 556L324 556L324 593L524 593L524 630L0 630L0 593L0 593L0 556L0 556L0 519L0 519L0 482L0 482L0 445L0 445L0 408L0 408L0 371L0 371L0 334L0 334L0 296L0 296L0 259L0 259L0 222L0 222L0 185L0 185L0 148L0 148L0 111L0 111L0 74L0 74L0 37L0 37L0 0L0 0Z" fill="#7f00d4"></path><path d="M355 0L258 0L258 37L337 37L337 74L233 74L233 111L402 111L402 148L221 148L221 185L349 185L349 222L259 222L259 259L293 259L293 296L352 296L352 334L277 334L277 371L230 371L230 408L332 408L332 445L406 445L406 482L406 482L406 519L416 519L416 556L420 556L420 593L238 593L238 630L0 630L0 593L0 593L0 556L0 556L0 519L0 519L0 482L0 482L0 445L0 445L0 408L0 408L0 371L0 371L0 334L0 334L0 296L0 296L0 259L0 259L0 222L0 222L0 185L0 185L0 148L0 148L0 111L0 111L0 74L0 74L0 37L0 37L0 0L0 0Z" fill="#8800e2"></path><path d="M133 0L189 0L189 37L191 37L191 74L151 74L151 111L134 111L134 148L231 148L231 185L261 185L261 222L162 222L162 259L306 259L306 296L144 296L144 334L270 334L270 371L290 371L290 408L232 408L232 445L239 445L239 482L289 482L289 519L147 519L147 556L156 556L156 593L132 593L132 630L0 630L0 593L0 593L0 556L0 556L0 519L0 519L0 482L0 482L0 445L0 445L0 408L0 408L0 371L0 371L0 334L0 334L0 296L0 296L0 259L0 259L0 222L0 222L0 185L0 185L0 148L0 148L0 111L0 111L0 74L0 74L0 37L0 37L0 0L0 0Z" fill="#9000f0"></path><path d="M118 0L86 0L86 37L162 37L162 74L50 74L50 111L71 111L71 148L89 148L89 185L95 185L95 222L200 222L200 259L185 259L185 296L87 296L87 334L194 334L194 371L59 371L59 408L127 408L127 445L99 445L99 482L148 482L148 519L109 519L109 556L186 556L186 593L204 593L204 630L0 630L0 593L0 593L0 556L0 556L0 519L0 519L0 482L0 482L0 445L0 445L0 408L0 408L0 371L0 371L0 334L0 334L0 296L0 296L0 259L0 259L0 222L0 222L0 185L0 185L0 148L0 148L0 111L0 111L0 74L0 74L0 37L0 37L0 0L0 0Z" fill="#9900ff"></path></svg>