<svg id="visual" viewBox="0 0 1200 630" width="1200" height="630" xmlns="http://www.w3.org/2000/svg" xmlns:xlink="http://www.w3.org/1999/xlink" version="1.1"><rect x="0" y="0" width="1200" height="630" fill="#002233"></rect><path d="M0 407L28.5 418C57 429 114 451 171.2 473.8C228.3 496.7 285.7 520.3 342.8 519.7C400 519 457 494 514.2 470.5C571.3 447 628.7 425 685.8 428.2C743 431.3 800 459.7 857.2 466.8C914.3 474 971.7 460 1028.8 463.7C1086 467.3 1143 488.7 1171.5 499.3L1200 510L1200 631L1171.5 631C1143 631 1086 631 1028.8 631C971.7 631 914.3 631 857.2 631C800 631 743 631 685.8 631C628.7 631 571.3 631 514.2 631C457 631 400 631 342.8 631C285.7 631 228.3 631 171.2 631C114 631 57 631 28.5 631L0 631Z" fill="#0066FF" stroke-linecap="round" stroke-linejoin="miter"></path></svg>